<?xml version="1.0" standalone="no"?>
<!DOCTYPE svg PUBLIC "-//W3C//DTD SVG 20010904//EN"
 "http://www.w3.org/TR/2001/REC-SVG-20010904/DTD/svg10.dtd">
<svg version="1.0" xmlns="http://www.w3.org/2000/svg"
 width="300.000000pt" height="300.000000pt" viewBox="0 0 300.000000 300.000000"
 preserveAspectRatio="xMidYMid meet">
<metadata>
Created by potrace 1.10, written by Peter Selinger 2001-2011
</metadata>
<g transform="translate(0.000000,300.000000) scale(0.100000,-0.100000)"
fill="#000000" stroke="none">
<path d="M1400 2661 c-59 -12 -92 -36 -162 -113 -50 -56 -78 -79 -115 -93
-478 -179 -757 -665 -679 -1180 15 -99 52 -218 92 -298 73 -145 224 -321 347
-405 331 -228 776 -254 1147 -67 74 37 200 136 274 215 125 133 212 294 259
480 30 117 31 378 3 490 -52 206 -131 352 -269 497 -93 98 -191 170 -308 227
-89 43 -98 50 -113 89 -16 42 -41 64 -120 105 -26 14 -45 18 -59 13 -15 -6
-42 -1 -82 14 -68 26 -163 37 -215 26z m195 -56 c22 -9 48 -24 57 -32 15 -14
19 -14 34 1 22 22 57 17 69 -11 6 -15 15 -21 27 -17 25 7 57 -29 64 -74 6 -38
9 -40 83 -70 284 -116 525 -404 597 -710 50 -212 29 -454 -57 -656 -66 -155
-220 -343 -357 -435 -314 -211 -720 -243 -1059 -81 -152 72 -253 152 -358 283
-411 513 -240 1290 347 1575 45 22 101 46 123 52 27 9 51 27 75 56 80 101 93
113 133 128 52 19 165 15 222 -9z"/>
<path d="M1417 2579 c-51 -12 -85 -36 -104 -73 -8 -17 -28 -43 -44 -58 -39
-36 -45 -69 -26 -146 16 -64 16 -67 -3 -84 -40 -37 -19 -142 33 -165 15 -7 26
-23 30 -41 3 -17 19 -45 36 -64 l29 -33 -25 -30 c-22 -24 -40 -32 -111 -47
-51 -10 -103 -28 -130 -45 -42 -26 -50 -38 -124 -198 -127 -271 -129 -277
-117 -319 5 -20 21 -43 34 -52 14 -9 25 -25 25 -35 0 -19 -8 -19 -157 -17
l-157 3 -19 85 c-26 126 -19 323 17 445 38 126 96 238 174 336 86 107 171 176
300 241 56 29 102 58 102 64 0 7 3 20 6 29 6 13 -1 13 -47 -5 -237 -93 -442
-290 -539 -518 -64 -152 -75 -210 -74 -407 0 -167 2 -186 28 -270 93 -306 312
-542 598 -646 132 -49 209 -62 358 -62 277 0 505 91 695 278 179 176 265 352
296 609 43 351 -136 723 -444 924 -78 51 -211 112 -245 112 -17 0 -18 6 -14
55 5 61 0 65 -50 39 l-31 -16 7 27 c9 37 -2 50 -25 29 -19 -17 -21 -17 -47 0
-78 51 -164 71 -235 55z m158 -64 c28 -14 61 -32 74 -39 l23 -14 -21 -12 c-51
-27 31 -40 93 -15 16 7 17 5 8 -12 -26 -47 -114 -54 -171 -14 -34 25 -41 26
-41 7 0 -27 51 -76 91 -88 27 -8 36 -14 27 -20 -26 -16 -84 -7 -138 22 -33 17
-71 29 -95 30 -35 1 -38 2 -22 14 9 7 17 16 17 20 0 10 -109 2 -135 -9 -18 -7
-17 -5 4 18 13 15 47 34 75 43 71 23 82 37 24 32 -41 -3 -45 -1 -37 14 28 52
142 64 224 23z m171 -170 c-9 -13 -16 -31 -16 -40 0 -8 -7 -15 -15 -15 -8 0
-15 4 -15 9 0 5 -3 16 -6 24 -4 10 4 21 23 31 40 22 48 20 29 -9z m-396 6 c0
-10 -44 -41 -58 -41 -11 0 -22 36 -14 44 9 10 72 7 72 -3z m489 -21 c298 -114
507 -348 588 -659 22 -87 24 -110 20 -246 -3 -83 -12 -172 -19 -200 l-14 -50
-162 -3 c-150 -2 -162 -1 -162 15 0 10 14 31 30 46 49 47 43 76 -66 313 -62
137 -104 217 -122 232 -35 29 -113 58 -182 67 -44 6 -60 13 -81 38 l-26 31 27
36 c16 19 31 46 35 60 4 14 23 39 43 55 29 26 35 39 39 81 5 45 2 53 -17 67
-16 11 -20 21 -16 39 9 33 29 98 30 98 1 0 25 -9 55 -20z m-358 -40 c51 -37
100 -47 158 -31 47 12 60 6 61 -29 0 -12 -15 -15 -72 -17 -119 -2 -159 -2
-246 0 l-83 2 6 25 c15 60 78 79 129 39 29 -23 36 -7 9 23 -24 27 -8 22 38
-12z m-195 -156 c8 -32 8 -44 0 -41 -18 6 -36 51 -29 75 7 30 15 21 29 -34z
m54 31 c-7 -9 -11 -18 -8 -21 3 -2 13 7 22 21 15 23 47 35 46 18 -1 -5 -16
-26 -34 -47 l-34 -39 -7 32 c-6 29 10 70 23 56 3 -2 -1 -11 -8 -20z m290 17
c0 -5 -9 -17 -21 -28 -11 -10 -25 -28 -30 -39 -6 -11 10 3 35 30 25 28 46 45
46 39 0 -6 -9 -19 -21 -30 -11 -10 -25 -28 -30 -39 -6 -11 8 -1 29 23 22 23
42 42 46 42 10 0 7 -50 -4 -71 -9 -16 -20 -19 -61 -18 -44 2 -52 6 -60 26 -16
43 -11 61 19 66 48 7 52 7 52 -1z m120 -28 c0 -28 -16 -64 -29 -64 -4 0 -3 22
3 49 10 51 26 60 26 15z m-290 3 c0 -12 -7 -33 -16 -45 -12 -18 -24 -22 -55
-20 -21 1 -39 4 -39 6 0 3 15 22 33 42 38 45 77 53 77 17z m65 -36 c11 -52 64
-78 123 -61 38 10 39 4 13 -48 -42 -81 -126 -132 -188 -111 -46 15 -99 63
-124 110 -26 53 -25 59 14 48 55 -15 89 1 116 54 25 51 36 53 46 8z m-20 -271
c11 0 37 8 57 18 l36 19 7 -34 c5 -29 0 -43 -34 -93 -22 -33 -45 -77 -52 -97
l-12 -37 -15 40 c-8 21 -32 64 -53 94 -33 47 -38 61 -33 91 l6 36 36 -19 c20
-10 46 -18 57 -18z m-126 -46 c12 -19 19 -40 16 -45 -11 -17 -22 -9 -28 19 -3
15 -9 35 -12 45 -12 29 2 19 24 -19z m271 -13 c-10 -40 -23 -51 -35 -32 -6 10
34 85 42 77 2 -2 -1 -22 -7 -45z m-325 7 c-8 -20 39 -71 66 -73 16 -1 33 -15
51 -41 38 -55 36 -63 -16 -61 -69 3 -86 -19 -86 -108 0 -63 3 -74 24 -94 22
-20 31 -22 80 -17 55 7 56 6 56 -18 0 -28 42 -66 73 -66 36 0 67 39 67 84 0
23 -6 48 -13 57 -16 21 -55 41 -67 34 -5 -3 -12 7 -16 22 -4 15 -14 40 -22 55
-15 26 -15 29 4 50 11 13 32 42 47 65 19 29 32 41 42 36 20 -7 61 30 69 63 9
35 53 34 62 -2 4 -15 29 -42 60 -65 30 -22 54 -43 54 -48 0 -4 27 -58 60 -119
52 -98 58 -115 50 -138 -9 -23 -7 -31 12 -51 27 -29 14 -46 -28 -37 -21 4 -38
20 -62 55 -41 62 -59 70 -85 38 -16 -20 -18 -35 -14 -86 4 -59 4 -62 -22 -72
-48 -20 -140 -41 -155 -35 -18 7 -66 -24 -66 -42 0 -10 -13 -14 -43 -14 -37 0
-45 4 -61 31 -16 27 -22 30 -50 25 -18 -4 -46 -2 -62 3 -16 5 -48 14 -71 20
l-41 11 1 69 c2 55 -2 73 -17 90 -11 12 -22 21 -26 21 -13 0 -46 -35 -65 -69
-15 -25 -31 -37 -62 -46 -39 -12 -43 -11 -43 5 0 9 9 25 19 34 18 16 20 43 6
66 -3 5 8 33 24 62 16 29 44 83 63 119 24 47 49 79 88 111 30 24 56 54 58 66
3 17 10 22 32 22 19 0 28 -4 25 -12z m-77 -14 c-11 -10 -72 -44 -100 -55 -16
-6 -28 -18 -28 -27 0 -8 -31 -75 -70 -148 -66 -127 -68 -134 -50 -144 27 -14
25 -30 -3 -30 -12 0 -33 -7 -45 -16 -15 -10 -22 -11 -22 -3 0 18 162 362 179
381 19 20 85 46 120 47 13 1 22 -2 19 -5z m635 -30 c20 -13 37 -28 37 -33 0
-5 36 -86 80 -180 44 -94 80 -175 80 -181 0 -7 -9 -5 -22 4 -12 9 -33 16 -45
16 -28 0 -30 16 -3 30 18 10 16 17 -50 144 -39 73 -70 139 -70 147 0 8 -15 22
-32 31 -75 36 -88 43 -88 52 0 15 74 -5 113 -30z m-404 -181 c32 -27 37 -73
11 -106 -18 -22 -29 -27 -68 -27 l-47 0 0 75 0 75 41 0 c25 0 50 -7 63 -17z
m115 -119 c25 -10 19 -24 -11 -24 l-28 -1 28 -15 c50 -27 27 -69 -31 -55 -35
9 -28 26 9 24 l34 -2 -32 14 c-35 16 -41 33 -21 53 13 13 28 15 52 6z m-404
-94 l0 -71 -31 16 c-16 9 -29 19 -27 23 23 46 53 102 55 102 2 0 3 -32 3 -70z
m690 -34 c0 -3 -13 -12 -30 -21 l-30 -16 0 73 0 73 30 -52 c17 -29 30 -55 30
-57z m-920 -26 c-42 -35 -50 -37 -50 -10 0 21 28 38 65 39 15 1 13 -5 -15 -29z
m1114 20 c28 -10 37 -50 11 -50 -8 0 -15 5 -15 10 0 6 -15 19 -32 30 -29 17
-30 20 -11 20 12 0 33 -4 47 -10z m-778 -120 c39 0 55 -18 90 -98 20 -47 24
-66 16 -74 -14 -14 -11 -18 -47 60 -16 34 -35 62 -42 62 -19 0 -16 -14 13 -71
24 -48 26 -79 5 -79 -5 0 -19 25 -31 55 -22 54 -45 83 -56 72 -4 -3 1 -24 10
-47 20 -49 20 -60 2 -60 -7 0 -19 14 -26 31 -7 16 -28 41 -46 55 -18 14 -37
38 -42 54 -10 26 -14 28 -49 23 -87 -11 -120 34 -63 87 l31 29 102 -50 c56
-27 116 -49 133 -49z m688 59 c14 -17 26 -37 26 -45 0 -21 -48 -36 -97 -31
-37 4 -43 2 -49 -17 -3 -11 -27 -41 -53 -66 -25 -25 -51 -54 -57 -65 -18 -31
-30 -8 -15 28 23 57 24 67 8 67 -8 0 -28 -28 -46 -65 -30 -63 -51 -83 -51 -47
0 9 11 40 24 69 22 47 24 63 6 63 -4 0 -22 -29 -40 -65 -18 -36 -38 -64 -44
-62 -14 6 -11 18 21 95 27 65 47 82 97 82 13 0 66 20 117 45 52 24 101 45 111
45 9 0 28 -14 42 -31z m76 -18 c0 -26 -14 -71 -22 -71 -5 0 -6 5 -2 11 4 7 7
25 6 40 0 16 4 29 9 29 5 0 9 -4 9 -9z m-645 -44 c13 -10 15 -16 6 -21 -12 -8
-41 10 -41 25 0 13 13 11 35 -4z m205 5 c0 -10 -22 -32 -32 -32 -13 0 -9 28 5
33 19 8 27 8 27 -1z m-500 -97 l23 -25 -51 0 c-64 0 -67 -5 -116 -158 -42
-131 -43 -145 -16 -172 18 -18 34 -20 193 -21 119 -1 162 -4 141 -10 -43 -12
-71 -45 -58 -67 22 -34 71 -41 240 -35 127 5 163 3 169 -7 12 -19 -32 -54 -98
-78 -47 -18 -63 -19 -137 -11 -257 29 -478 147 -631 337 -66 82 -96 131 -133
215 l-26 57 238 0 239 0 23 -25z m450 19 c0 -3 -5 -14 -10 -25 -9 -15 -22 -19
-64 -19 -47 0 -54 3 -64 25 l-12 25 75 0 c41 0 75 -3 75 -6z m830 0 c0 -3 -18
-43 -41 -88 -123 -250 -343 -423 -629 -496 -102 -26 -112 -25 -72 6 41 33 44
76 6 101 -23 15 -50 17 -208 14 -225 -3 -229 11 -13 44 20 3 37 10 37 15 0 6
104 10 265 10 l266 0 25 26 c16 15 24 32 21 42 -3 9 -22 71 -43 137 -20 66
-41 126 -47 133 -5 7 -31 12 -60 12 l-50 0 23 25 23 25 249 0 c136 0 248 -3
248 -6z m-1302 -86 c-7 -19 -38 -22 -38 -4 0 10 9 16 21 16 12 0 19 -5 17 -12z
m72 -3 c0 -8 -9 -15 -20 -15 -11 0 -20 7 -20 15 0 8 9 15 20 15 11 0 20 -7 20
-15z m380 1 c0 -11 -14 -14 -55 -14 -40 0 -55 4 -55 14 0 10 15 14 55 14 41 0
55 -4 55 -14z m310 -1 c0 -8 -9 -15 -20 -15 -11 0 -20 7 -20 15 0 8 9 15 20
15 11 0 20 -7 20 -15z m70 0 c0 -8 -9 -15 -20 -15 -11 0 -20 7 -20 15 0 8 9
15 20 15 11 0 20 -7 20 -15z m-810 -50 c0 -10 -11 -15 -35 -15 -24 0 -35 5
-35 15 0 10 11 15 35 15 24 0 35 -5 35 -15z m94 0 c4 -12 -4 -15 -39 -15 -42
0 -54 7 -38 23 13 13 71 7 77 -8z m296 0 c0 -8 -9 -15 -20 -15 -11 0 -20 7
-20 15 0 8 9 15 20 15 11 0 20 -7 20 -15z m70 0 c0 -8 -9 -15 -20 -15 -11 0
-20 7 -20 15 0 8 9 15 20 15 11 0 20 -7 20 -15z m295 0 c0 -5 -21 -11 -47 -13
-45 -3 -58 4 -41 22 11 10 88 3 88 -9z m73 -2 c6 -19 -35 -16 -42 3 -4 11 0
15 16 12 12 -2 23 -9 26 -15z m-878 -52 c0 -14 -6 -19 -20 -18 -31 2 -24 37 7
37 7 0 13 -9 13 -19z m188 -16 c-6 -6 -58 7 -58 16 0 14 55 15 58 1 2 -8 2
-15 0 -17z m89 12 c-5 -15 -57 -15 -57 -1 0 7 10 14 23 16 27 5 39 0 34 -15z
m93 2 c0 -5 -16 -9 -35 -9 -32 0 -43 8 -30 22 8 8 65 -3 65 -13z m176 -7 c-6
-11 -56 -4 -56 8 0 11 43 18 54 9 4 -4 6 -12 2 -17z m84 12 c0 -9 -11 -14 -30
-14 -27 0 -38 9 -26 21 12 11 56 6 56 -7z m90 -5 c0 -5 -13 -9 -30 -9 -28 0
-38 9 -25 22 8 8 55 -3 55 -13z m100 1 c0 -23 -25 -27 -33 -6 -7 16 1 26 20
26 7 0 13 -9 13 -20z m70 -1 c0 -14 -5 -19 -17 -17 -26 5 -29 38 -4 38 15 0
21 -6 21 -21z m-806 -3 c-3 -8 -15 -11 -30 -8 -34 6 -30 22 6 22 21 0 28 -4
24 -14z m376 4 c0 -5 -13 -10 -30 -10 -16 0 -30 5 -30 10 0 6 14 10 30 10 17
0 30 -4 30 -10z m-470 -55 c0 -9 -9 -15 -25 -15 -24 0 -32 10 -18 23 12 13 43
7 43 -8z m88 3 c-3 -7 -19 -14 -36 -16 -25 -3 -31 0 -26 12 7 19 68 23 62 4z
m92 -3 c0 -10 -10 -15 -30 -15 -22 0 -28 4 -24 15 4 8 17 15 30 15 15 0 24 -6
24 -15z m80 0 c0 -9 -9 -15 -25 -15 -16 0 -25 6 -25 15 0 9 9 15 25 15 16 0
25 -6 25 -15z m70 0 c0 -9 -9 -15 -25 -15 -24 0 -32 10 -18 23 12 13 43 7 43
-8z m90 0 c0 -10 -10 -15 -30 -15 -20 0 -30 5 -30 15 0 10 10 15 30 15 20 0
30 -5 30 -15z m90 0 c0 -10 -10 -15 -30 -15 -20 0 -30 5 -30 15 0 10 10 15 30
15 20 0 30 -5 30 -15z m80 0 c0 -9 -9 -15 -25 -15 -16 0 -25 6 -25 15 0 9 9
15 25 15 16 0 25 -6 25 -15z m74 0 c4 -11 -1 -15 -19 -15 -25 0 -39 12 -28 24
12 11 41 6 47 -9z m84 -2 c2 -9 -7 -13 -27 -13 -21 0 -31 5 -31 16 0 19 51 16
58 -3z m90 0 c2 -9 -8 -13 -32 -13 -26 0 -36 4 -36 16 0 19 61 16 68 -3z m80
0 c2 -8 -6 -13 -22 -13 -17 0 -26 5 -26 16 0 19 41 16 48 -3z m30 -75 c3 -17
-26 -18 -507 -18 -329 0 -512 4 -516 10 -3 6 -3 15 0 20 4 7 180 9 513 8 473
-3 507 -4 510 -20z"/>
<path d="M1842 2134 c-34 -23 -25 -55 21 -77 20 -10 35 -23 31 -28 -7 -12 -41
-12 -49 1 -11 18 -26 10 -23 -12 4 -33 76 -38 103 -8 24 26 13 49 -33 69 -43
19 -41 35 3 28 29 -5 35 -3 35 13 0 32 -51 40 -88 14z"/>
<path d="M2027 2068 c-18 -19 -18 -20 0 -33 10 -8 20 -14 23 -14 3 0 13 6 23
14 18 13 18 14 -2 34 -25 25 -21 25 -44 -1z"/>
<path d="M2034 1976 c-76 -34 -46 -156 38 -156 18 0 38 4 45 8 18 11 -2 36
-22 28 -24 -9 -55 2 -55 20 0 10 13 14 45 14 42 0 45 2 45 28 0 33 -8 45 -37
61 -26 13 -21 13 -59 -3z m53 -42 c4 -12 -42 -26 -52 -16 -3 3 0 11 7 19 13
16 39 14 45 -3z"/>
<path d="M2125 1767 c-20 -32 -11 -54 31 -69 19 -7 33 -17 31 -23 -4 -11 -33
-12 -59 0 -14 5 -18 2 -18 -13 0 -36 75 -45 104 -13 26 28 16 53 -28 74 -45
21 -38 45 8 27 25 -9 27 -8 24 12 -2 18 -10 24 -40 26 -30 3 -40 -1 -53 -21z"/>
<path d="M2330 1680 c0 -6 -15 -19 -32 -30 -28 -17 -30 -20 -12 -20 12 0 28
-10 37 -22 l15 -23 21 23 c12 12 29 22 39 22 12 1 9 5 -9 15 -15 8 -29 21 -33
30 -6 17 -26 21 -26 5z"/>
<path d="M2210 1590 c0 -11 -4 -20 -10 -20 -5 0 -10 -7 -10 -15 0 -8 4 -15 9
-15 6 0 11 -24 13 -52 3 -52 4 -53 36 -56 24 -2 32 1 32 12 0 9 -7 16 -15 16
-11 0 -15 11 -15 40 0 29 4 40 15 40 8 0 15 7 15 15 0 8 -7 15 -15 15 -8 0
-15 9 -15 20 0 13 -7 20 -20 20 -13 0 -20 -7 -20 -20z"/>
<path d="M1410 1515 c0 -37 3 -45 18 -45 41 0 59 60 23 80 -34 18 -41 11 -41
-35z"/>
<path d="M873 1024 c-27 -11 -11 -24 28 -24 28 0 39 4 37 13 -5 13 -44 19 -65
11z"/>
<path d="M783 1013 c-7 -2 -13 -11 -13 -19 0 -17 65 -20 76 -3 12 20 -31 36
-63 22z"/>
<path d="M2114 1086 c-38 -17 -44 -31 -44 -106 0 -51 3 -61 26 -79 31 -25 74
-27 113 -6 35 18 41 32 41 99 0 42 -5 57 -22 73 -31 28 -76 35 -114 19z m42
-76 c8 0 14 10 14 25 0 23 2 24 20 15 16 -8 20 -21 20 -60 0 -50 -15 -70 -52
-70 -46 0 -70 73 -39 120 l16 25 3 -27 c2 -16 9 -28 18 -28z"/>
<path d="M1100 2147 c-52 -26 -62 -95 -20 -137 20 -20 94 -29 104 -12 9 15
-12 35 -29 28 -18 -7 -55 9 -55 24 0 6 23 10 51 10 l52 0 -7 32 c-11 54 -52
77 -96 55z m53 -41 c4 -10 -4 -15 -24 -18 -27 -4 -39 9 -22 25 11 12 41 7 46
-7z"/>
<path d="M918 1986 c-16 -8 -28 -11 -28 -5 0 5 -9 9 -20 9 -19 0 -20 -7 -20
-90 0 -89 0 -90 25 -90 23 0 24 4 27 63 3 56 5 62 26 65 17 3 22 10 22 33 0
16 -1 29 -2 29 -2 0 -15 -7 -30 -14z"/>
<path d="M680 1591 l0 -111 40 0 c86 0 140 44 140 113 0 57 -43 97 -103 97
-25 0 -52 3 -61 6 -14 5 -16 -8 -16 -105z m114 43 c17 -16 21 -61 8 -82 -5 -7
-23 -16 -40 -21 l-32 -10 0 65 c0 61 1 64 24 64 14 0 32 -7 40 -16z"/>
<path d="M668 1419 c-17 -18 -17 -20 0 -37 18 -18 20 -18 41 -1 l22 18 -21 21
c-23 23 -20 23 -42 -1z"/>
</g>
</svg>
